<!-- SVG FROM - https://www.iconfinder.com/Aficons -->
              <svg xmlns="http://www.w3.org/2000/svg" xmlns:cc="http://creativecommons.org/ns#"
                xmlns:dc="http://purl.org/dc/elements/1.1/" xmlns:inkscape="http://www.inkscape.org/namespaces/inkscape"
                xmlns:rdf="http://www.w3.org/1999/02/22-rdf-syntax-ns#"
                xmlns:sodipodi="http://sodipodi.sourceforge.net/DTD/sodipodi-0.dtd"
                xmlns:svg="http://www.w3.org/2000/svg" height="64" id="svg8" version="1.1"
                viewBox="0 0 16.933333 16.933333" width="64" class="center-svg">
                <defs id="defs2" />
                <g id="layer2">
                  <path
                    d="m 7.9377619,1.058349 c -0.2885821,0 -0.5291662,0.2405751 -0.5291662,0.5291671 v 0.79375 c 0.8814272,8.969e-4 1.2352391,8.599e-4 2.1166662,0 v -0.79375 c 0,-0.288592 -0.240584,-0.5291671 -0.529166,-0.5291671 z M 6.8799458,1.881038 C 5.8123778,2.3109241 4.9689679,3.164033 4.5415869,4.2323149 h 0.9487789 c 0.3450381,0.0077 0.3450381,0.521512 0,0.529167 H 4.4981789 c -0.444314,0 -0.7927171,0.3509863 -0.7927171,0.7953001 0,0.444314 0.3484031,0.7927168 0.7927171,0.7927168 h 7.9375001 c 0.444312,0 0.793233,-0.3484028 0.793233,-0.7927168 0,-0.4443139 -0.348921,-0.7953001 -0.793233,-0.7953001 h -0.992188 c -0.345037,-0.0076 -0.345037,-0.521511 0,-0.529167 h 0.946196 C 11.962645,3.164487 11.120234,2.3114271 10.053395,1.8815551 v 0.750858 0.01292 c -1.5e-5,0.146125 -0.1184632,0.264569 -0.2645833,0.264584 -0.8815908,8.732e-4 -1.7631859,8.996e-4 -2.6447998,0 C 6.9980939,2.9096262 6.8799598,2.7912562 6.8799458,2.6453332 v -0.01292 z m 0.7942659,1.5585611 h 1.5859501 a 0.26464844,0.26464844 0 1 1 0,0.5291669 H 7.6742117 a 0.26464844,0.26464844 0 0 1 0,-0.5291669 z m 0,0.7927158 h 1.5859501 a 0.26464844,0.26464844 0 0 1 0,0.529167 H 7.6742117 a 0.26464844,0.26464844 0 0 1 0,-0.529167 z m -2.5977738,2.382284 c 0,0 0,5.292e-4 0,5.292e-4 h 6.7804651 c 0,0 0,-5.292e-4 0,-5.292e-4 z m 0.05684,0.2640661 C 5.484986,8.2481919 6.721202,9.261466 8.2007911,9.261466 h 0.5291671 c 1.4796058,0 2.7178218,-1.013254 3.0700968,-2.3828009 z m 1.185974,2.9104168 2.147156,2.6799402 2.1471561,-2.6799402 H 8.4664079 Z m -0.6717932,0.0072 C 4.4398189,9.8313208 3.4511789,10.223159 2.703452,10.809656 c 0.7926359,0.661066 1.3427378,1.607021 1.4924158,2.682523 h 4.00544 v -0.509013 l -0.138493,-0.172599 a 0.52921957,0.52921957 0 0 1 -0.0098,-0.01188 L 5.9063757,10.119265 Z m 5.6378983,0 -0.248563,0.3105752 a 0.52921957,0.52921957 0 0 1 -0.0093,0.0124 l -0.993221,1.238683 -1.303796,1.627291 v 0.506946 h 4.008024 c 0.149607,-1.075491 0.69935,-2.020956 1.491898,-2.682007 -0.747911,-0.586854 -1.736828,-0.9789412 -2.94504,-1.01389 z M 2.2977919,11.157439 c -0.8090049,0.807911 -1.2392,1.865276 -1.2392,2.865975 v 1.588017 a 0.26460979,0.26461902 0 0 0 0.2635492,0.263549 h 2.3864177 v -1.78697 c 0,-1.192379 -0.5508749,-2.247884 -1.4107669,-2.930571 z m 12.3377481,0 c -0.859999,0.682687 -1.411283,1.738192 -1.411283,2.930571 v 1.78697 h 2.386934 a 0.26460979,0.26461902 0 0 0 0.26355,-0.263549 v -1.588017 c 0,-1.000699 -0.430195,-2.058064 -1.239201,-2.865975 z M 4.236692,14.023414 c 3.175e-4,0.02158 0.00209,0.04293 0.00209,0.0646 v 1.78697 h 3.9625489 v -1.851566 z m 4.493783,0 v 1.851566 h 3.965132 v -1.78697 c 0,-0.02166 0.0017,-0.04301 0.0021,-0.0646 z"
                    id="path2208" style="
                        color: #000000;
                        font-style: normal;
                        font-variant: normal;
                        font-weight: normal;
                        font-stretch: normal;
                        font-size: medium;
                        line-height: normal;
                        font-family: sans-serif;
                        font-variant-ligatures: normal;
                        font-variant-position: normal;
                        font-variant-caps: normal;
                        font-variant-numeric: normal;
                        font-variant-alternates: normal;
                        font-feature-settings: normal;
                        text-indent: 0;
                        text-align: start;
                        text-decoration: none;
                        text-decoration-line: none;
                        text-decoration-style: solid;
                        text-decoration-color: #000000;
                        letter-spacing: normal;
                        word-spacing: normal;
                        text-transform: none;
                        writing-mode: lr-tb;
                        direction: ltr;
                        text-orientation: mixed;
                        dominant-baseline: auto;
                        baseline-shift: baseline;
                        text-anchor: start;
                        white-space: normal;
                        shape-padding: 0;
                        clip-rule: nonzero;
                        display: inline;
                        overflow: visible;
                        visibility: visible;
                        opacity: 1;
                        isolation: auto;
                        mix-blend-mode: normal;
                        color-interpolation: sRGB;
                        color-interpolation-filters: linearRGB;
                        solid-color: #000000;
                        solid-opacity: 1;
                        vector-effect: none;
                        fill: #ffffff;
                        fill-opacity: 1;
                        fill-rule: nonzero;
                        stroke: none;
                        stroke-width: 0.52916664;
                        stroke-linecap: square;
                        stroke-linejoin: round;
                        stroke-miterlimit: 4;
                        stroke-dasharray: none;
                        stroke-dashoffset: 0;
                        stroke-opacity: 1;
                        color-rendering: auto;
                        image-rendering: auto;
                        shape-rendering: auto;
                        text-rendering: auto;
                        enable-background: accumulate;
                      " />
                </g>
              </svg>